<svg xmlns="http://www.w3.org/2000/svg" viewBox="0 0 348.63 72.22"><defs><style>.cls-1{fill:#f66;}.cls-2{fill:#1d1d1b;}</style></defs><title>Zasób 1</title><g id="Warstwa_2" data-name="Warstwa 2"><g id="Warstwa_1-2" data-name="Warstwa 1"><path class="cls-1" d="M7,69v0a3.45,3.45,0,0,1-.35,1.27l-.21.36A3.54,3.54,0,0,1,3.85,72.2l-.32,0H3.2l-.17,0-.13,0-.35-.08-.16,0L2.24,72l-.14-.06a2,2,0,0,1-.45-.24l-.12-.07a3.7,3.7,0,0,1-.81-.77l-.06-.09a3.34,3.34,0,0,1-.25-.4l-.06-.12a1.79,1.79,0,0,1-.13-.32,1,1,0,0,1-.06-.16l0-.17c0-.06,0-.11,0-.17s0-.06,0-.09a.43.43,0,0,1,0-.11,2.92,2.92,0,0,1,0-.51c0-.11,0-.22,0-.34a1,1,0,0,1,0-.24.59.59,0,0,1,0-.13c0-.06,0-.12,0-.17s0-.12.05-.18,0-.1,0-.15l0-.08.52-.9h0l-.05.07a3.48,3.48,0,0,1,.81-.77,0,0,0,0,1,0,0A3.43,3.43,0,0,1,2,65.5H2a3.53,3.53,0,0,1,5,2.91H7A2.62,2.62,0,0,1,7,69"/><path class="cls-1" d="M82.34,68.7a3.53,3.53,0,0,1-3.2,3.52H61a20.06,20.06,0,0,0-17.88-12h-.26l-.19,0a3.52,3.52,0,0,1-3.21-3.51,3.58,3.58,0,0,1,.32-1.46l12.4-21.45a3.56,3.56,0,0,0,.47-1.48v0a5.23,5.23,0,0,0,0-.56h0a3.54,3.54,0,0,0-5-2.91h0a3,3,0,0,0-.49.28h0a3.54,3.54,0,0,0-.88.85l-.18.29-20.78,36-2.33,4-.31.53a.91.91,0,0,1-.11.16h0a3.53,3.53,0,0,1-5.91-3.76,0,0,0,0,1,0,0,.14.14,0,0,1,0-.06l.22-.36,1.26-2.19a3.54,3.54,0,0,0,.46-1.48v0a2.62,2.62,0,0,0,0-.56h0a3.53,3.53,0,0,0-5-2.91h0a4.08,4.08,0,0,0-.49.28h0a3.38,3.38,0,0,0-.87.86A1.67,1.67,0,0,0,12,61a3.51,3.51,0,0,1-.87.85h0a2.62,2.62,0,0,1-.49.27h0a3.53,3.53,0,0,1-5-2.91h0a2.71,2.71,0,0,1,0-.57h0A3.65,3.65,0,0,1,6,57.43L19.32,34.36l7.46-12.92L38,2h0l.28-.49h0l.06-.07a3.52,3.52,0,0,1,5.73.07h0l.29.49h0a3.49,3.49,0,0,1,.34,1.52,3.41,3.41,0,0,1-.23,1.24l-.58,1h0L18.38,49.91a3.94,3.94,0,0,0-.47,1.48h0a5.23,5.23,0,0,0,0,.56h0a3.54,3.54,0,0,0,5,2.91s0,0,0,0a2.82,2.82,0,0,0,.48-.27h0a3.63,3.63,0,0,0,1.06-1.14L46.07,16.12l.35-.6a3.53,3.53,0,0,1,5.76,0h0a1,1,0,0,1,.1.15l.12.21L63,34.36,81.72,66.7s0,0,0,0l.25.44s0,0,0,0a3.53,3.53,0,0,1,.35,1.52"/><path class="cls-2" d="M187.87,36.82A16.72,16.72,0,0,0,183,33.88a40.3,40.3,0,0,0-7.65-2.23,41.78,41.78,0,0,1-5.64-1.52,6.13,6.13,0,0,1-2.52-1.52,2.81,2.81,0,0,1-.64-1.8,3.68,3.68,0,0,1,1.92-3.25,9.39,9.39,0,0,1,5.08-1.21,20.44,20.44,0,0,1,6.38,1,23.16,23.16,0,0,1,6.2,3.16l3.6-8.24a15,15,0,0,0-4.31-2.57,29.69,29.69,0,0,0-5.73-1.68,33.77,33.77,0,0,0-6.26-.59,22.89,22.89,0,0,0-9.55,1.86,15.5,15.5,0,0,0-6.39,5.09,12.25,12.25,0,0,0-2.29,7.25,14.08,14.08,0,0,0,.71,4.59A9.21,9.21,0,0,0,158.42,36a16,16,0,0,0,4.9,2.92,44.18,44.18,0,0,0,7.9,2.2,36.24,36.24,0,0,1,5.33,1.46,6.21,6.21,0,0,1,2.55,1.54,2.94,2.94,0,0,1,.68,1.89,3.2,3.2,0,0,1-1.95,2.86,12.47,12.47,0,0,1-5.74,1,26,26,0,0,1-7.28-1A25.51,25.51,0,0,1,158,45.65L154.3,53.9a20.91,20.91,0,0,0,4.93,2.57,34.22,34.22,0,0,0,6.17,1.67,36.48,36.48,0,0,0,6.57.59,28.54,28.54,0,0,0,10.41-1.67,14.09,14.09,0,0,0,6.51-4.77,12.29,12.29,0,0,0,2.23-7.38,12.83,12.83,0,0,0-.74-4.43,9.55,9.55,0,0,0-2.51-3.66"/><polygon class="cls-2" points="246.63 14.04 232.99 14.04 215.82 33.02 215.82 14.04 204.17 14.04 204.17 58.18 215.82 58.18 215.82 38.15 233.49 58.18 247.31 58.18 227.14 34.98 246.63 14.04"/><polygon class="cls-2" points="348.63 14.04 335.37 14.04 324.04 31.67 312.87 14.04 299.73 14.04 318.26 41.24 318.26 58.18 329.98 58.18 329.98 41.34 348.63 14.04"/><path class="cls-2" d="M147.58,58.18H136.11l-3.92-9.11H118a.43.43,0,0,1-.43-.43,8.33,8.33,0,0,1,8.33-8.33A1.69,1.69,0,0,0,127.43,38l-5-11.58-4.19,9.75-1.82,4.19-3.77,8.76-3.94,9.11H97.06L117.69,14h9.18Z"/><path class="cls-2" d="M304.1,58.18H292.62l-3.92-9.11H274.48a.43.43,0,0,1-.43-.43,8.33,8.33,0,0,1,8.34-8.33A1.69,1.69,0,0,0,283.94,38l-5-11.58-4.2,9.75-1.82,4.19-3.77,8.76-3.94,9.11H253.57L274.2,14h9.19Z"/></g></g></svg>